<?xml version="1.0" encoding="UTF-8" standalone="no"?>
<!-- Generator: Adobe Illustrator 16.0.0, SVG Export Plug-In . SVG Version: 6.00 Build 0)  -->

<svg
   xmlns:dc="http://purl.org/dc/elements/1.1/"
   xmlns:cc="http://creativecommons.org/ns#"
   xmlns:rdf="http://www.w3.org/1999/02/22-rdf-syntax-ns#"
   xmlns:svg="http://www.w3.org/2000/svg"
   xmlns="http://www.w3.org/2000/svg"
   xmlns:sodipodi="http://sodipodi.sourceforge.net/DTD/sodipodi-0.dtd"
   xmlns:inkscape="http://www.inkscape.org/namespaces/inkscape"
   version="1.1"
   id="Layer_1"
   x="0px"
   y="0px"
   width="21.0105"
   height="20.991875"
   viewBox="0 0 21.0105 20.991875"
   enable-background="new 0 0 24 24"
   xml:space="preserve"
   inkscape:version="0.48.2 r9819"
   sodipodi:docname="1371151031_cross-24.svg"><metadata
   id="metadata9"><rdf:RDF><cc:Work
       rdf:about=""><dc:format>image/svg+xml</dc:format><dc:type
         rdf:resource="http://purl.org/dc/dcmitype/StillImage" /><dc:title></dc:title></cc:Work></rdf:RDF></metadata><defs
   id="defs7" /><sodipodi:namedview
   pagecolor="#ffffff"
   bordercolor="#666666"
   borderopacity="1"
   objecttolerance="10"
   gridtolerance="10"
   guidetolerance="10"
   inkscape:pageopacity="0"
   inkscape:pageshadow="2"
   inkscape:window-width="1280"
   inkscape:window-height="752"
   id="namedview5"
   showgrid="false"
   fit-margin-top="0"
   fit-margin-left="0"
   fit-margin-right="0"
   fit-margin-bottom="0"
   inkscape:zoom="9.8333333"
   inkscape:cx="10.53075"
   inkscape:cy="10.487"
   inkscape:window-x="0"
   inkscape:window-y="0"
   inkscape:window-maximized="1"
   inkscape:current-layer="Layer_1" />
<path
   d="m 20.77575,2.5198752 c 0.313,0.313 0.313,0.826 0,1.139 l -6.276,6.27 c -0.313,0.3119998 -0.313,0.8259998 0,1.1399998 l 6.273,6.272 c 0.313,0.313 0.313,0.826 0,1.14 l -2.285,2.277 c -0.314,0.312 -0.828,0.312 -1.142,0 l -6.271,-6.271 c -0.313,-0.313 -0.828,-0.313 -1.141,0 l -6.276,6.267 c -0.313,0.313 -0.828,0.313 -1.141,0 l -2.282,-2.28 c -0.313,-0.313 -0.313,-0.826 0,-1.14 l 6.278,-6.269 c 0.313,-0.312 0.313,-0.826 0,-1.1399998 l -6.273,-6.273 c -0.314,-0.313 -0.314,-0.827 0,-1.14 l 2.284,-2.27800005 c 0.315,-0.312 0.828,-0.312 1.142,0.001 l 6.27,6.27000005 c 0.314,0.314 0.828,0.314 1.141,0.001 l 6.276,-6.26700005 c 0.312,-0.312 0.826,-0.312 1.141,0 l 2.282,2.28100005 z"
   id="path3"
   inkscape:connector-curvature="0"
   style="fill:#ffffff;fill-opacity:1" />
</svg>