<?xml version="1.0" encoding="UTF-8" standalone="no"?>
<!-- Created with Inkscape (http://www.inkscape.org/) -->

<svg
   xmlns:dc="http://purl.org/dc/elements/1.1/"
   xmlns:cc="http://creativecommons.org/ns#"
   xmlns:rdf="http://www.w3.org/1999/02/22-rdf-syntax-ns#"
   xmlns:svg="http://www.w3.org/2000/svg"
   xmlns="http://www.w3.org/2000/svg"
   xmlns:sodipodi="http://sodipodi.sourceforge.net/DTD/sodipodi-0.dtd"
   xmlns:inkscape="http://www.inkscape.org/namespaces/inkscape"
   id="svg2"
   version="1.1"
   inkscape:version="0.48.2 r9819"
   width="50"
   height="50"
   sodipodi:docname="hour.svg">
  <metadata
     id="metadata8">
    <rdf:RDF>
      <cc:Work
         rdf:about="">
        <dc:format>image/svg+xml</dc:format>
        <dc:type
           rdf:resource="http://purl.org/dc/dcmitype/StillImage" />
        <dc:title />
      </cc:Work>
    </rdf:RDF>
  </metadata>
  <defs
     id="defs6" />
  <sodipodi:namedview
     pagecolor="#ffffff"
     bordercolor="#666666"
     borderopacity="1"
     objecttolerance="10"
     gridtolerance="10"
     guidetolerance="10"
     inkscape:pageopacity="0"
     inkscape:pageshadow="2"
     inkscape:window-width="1280"
     inkscape:window-height="752"
     id="namedview4"
     showgrid="false"
     fit-margin-top="0"
     fit-margin-left="7.5"
     fit-margin-right="7.5"
     fit-margin-bottom="0"
     inkscape:zoom="0.65186406"
     inkscape:cx="-530.72129"
     inkscape:cy="253.92643"
     inkscape:window-x="0"
     inkscape:window-y="0"
     inkscape:window-maximized="1"
     inkscape:current-layer="svg2" />
  <g
     id="g2987"
     transform="matrix(0.13133206,0,0,0.14881865,-97.550067,-17.467274)"
     style="fill:#ffffff;fill-opacity:1">
    <path
       style="fill:#ffffff;fill-opacity:1"
       d="m 807.15105,451.89029 c -1.77666,-0.77236 -4.15692,-2.89225 -5.28945,-4.71086 -2.00878,-3.22568 -2.05076,-4.33379 -1.71648,-45.30655 0.33231,-40.72994 0.41259,-42.21168 2.65495,-49 4.70808,-14.25279 12.60242,-26.97766 23.49296,-37.86819 3.05175,-3.05175 11.97007,-10.36478 19.81849,-16.25117 21.12965,-15.84745 26.76984,-20.55278 26.76984,-22.33274 0,-3.49225 -3.30516,-6.50494 -30.5,-27.80112 -16.33545,-12.79224 -30.91523,-30.27735 -36.8947,-44.24678 -4.77995,-11.16708 -5.6053,-18.40234 -5.6053,-49.13763 0,-30.30533 0.18839,-31.50559 5.61488,-35.77407 l 2.65484,-2.0883 124.61514,0.0147 c 96.91118,0.0115 125.14948,0.28936 127.01878,1.25 1.3219,0.67939 3.3469,2.50709 4.5,4.06155 2.0225,2.72667 2.0957,3.90757 2.0792,33.5 -0.019,34.47541 -0.4019,37.16065 -7.361,51.67371 -7.4253,15.48534 -18.1138,26.89479 -43.7241,46.67347 -14.1911,10.95971 -22.39774,18.76072 -22.39774,21.29069 0,1.85118 9.98764,10.87417 19.50004,17.61657 27.7791,19.68999 41.739,34.83554 48.7765,52.91927 4.9465,12.71057 5.2235,15.78635 5.2235,58 0,35.34645 -0.1794,39.82757 -1.706,42.61516 -3.7189,6.79085 4.6041,6.38905 -131.44517,6.3457 -103.21512,-0.0329 -123.36514,-0.26358 -126.07918,-1.44345 z M 1041.4425,425.9853 c 0.3296,-1.31318 0.4261,-15.60068 0.2145,-31.75 -0.348,-26.56204 -0.5852,-29.96203 -2.4868,-35.64944 -4.5236,-13.52907 -15.1994,-25.70932 -35.6994,-40.73017 -25.73589,-18.85735 -32.19458,-25.49991 -34.61854,-35.60412 -3.62697,-15.11891 3.3425,-25.76869 30.89366,-47.20744 24.69218,-19.21404 35.50448,-31.29262 39.66528,-44.31068 1.5771,-4.93446 1.8808,-9.17907 1.9216,-26.86057 l 0.049,-21 -108.24997,-0.25446 -108.25,-0.25447 0,20.91537 c 0,17.71869 0.28956,21.84574 1.89456,27.0026 4.38084,14.07568 14.86071,25.75597 43.60544,48.60027 19.59164,15.57005 24.44874,21.2257 27.093,31.54723 1.91165,7.4619 0.90735,12.88238 -3.73163,20.14068 -3.76045,5.88372 -7.94154,9.66603 -22.66388,20.5023 -30.55683,22.49113 -41.88382,35.82756 -45.17678,53.1913 -1.1168,5.88882 -1.43196,62.3646 -0.35404,63.44251 0.36669,0.36667 48.95812,0.66667 107.98097,0.66667 l 107.31433,0 0.5992,-2.38758 z M 847.26647,405.83789 c -1.38837,-2.11892 -1.57818,-4.41137 -1.15649,-13.96711 0.43747,-9.91322 0.87984,-12.20045 3.32956,-17.21501 1.55379,-3.18059 5.15853,-8.11944 8.01055,-10.97521 10.43204,-10.44581 33.63594,-23.38879 54.83199,-30.58494 21.26157,-7.21839 31.4052,-5.74228 61.24228,8.91199 22.39119,10.99727 38.98024,24.06156 43.85794,34.53912 2.2109,4.74918 2.4806,6.64935 2.4893,17.54097 0.01,11.05858 -0.1733,12.3128 -1.9245,13.25 -1.2891,0.68988 -29.8012,1.03518 -85.47695,1.03518 l -83.54268,0 -1.661,-2.53499 z m 78.27865,-124.86791 c -2.66736,-2.66737 -3.75425,-4.95872 -5.02838,-10.60073 -2.60007,-11.51348 -6.73995,-18.13792 -19.11292,-30.58361 -6.06235,-6.09798 -14.31233,-13.67649 -18.33329,-16.84113 -9.08889,-7.15329 -19.9513,-17.25864 -21.33921,-19.85199 -0.79275,-1.48126 -0.67061,-2.32756 0.50571,-3.50388 1.4012,-1.40121 3.37933,-1.24148 20.4939,1.65485 26.38501,4.46518 45.21298,5.67032 66.57411,4.26129 16.98448,-1.12035 35.56256,-3.77795 46.84221,-6.7008 6.30045,-1.63261 8.73415,-0.94432 8.73415,2.47023 0,2.19858 -10.03754,11.85008 -23.00004,22.11552 -22.41026,17.74745 -33.68857,32.11114 -35.87533,45.68968 -1.74629,10.84344 -5.54532,15.29347 -13.05615,15.29347 -3.21846,0 -4.668,-0.66614 -7.40476,-3.4029 z"
       id="path2989"
       inkscape:connector-curvature="0" />
  </g>
</svg>
